<?xml version="1.0" encoding="UTF-8"?>
<svg xmlns="http://www.w3.org/2000/svg" xmlns:xlink="http://www.w3.org/1999/xlink" width="100px" height="100px" viewBox="0 0 100 100" version="1.1">
<g id="surface1">
<path style=" stroke:none;fill-rule:nonzero;fill:rgb(52.941179%,59.607846%,13.333334%);fill-opacity:1;" d="M 38.238281 39.511719 L 46.644531 55.046875 L 65.863281 1.375 L 52.203125 1.375 C 47.546875 14.085938 42.894531 26.800781 38.238281 39.511719 Z M 42.320312 66.792969 L 45.511719 58.285156 L 18.832031 9.058594 C 17.742188 6.960938 17.875 5.644531 18.832031 4.855469 L 8.261719 4.855469 C 8.640625 5.144531 8.898438 5.523438 9.277344 6.191406 C 20.292969 26.390625 31.304688 46.59375 42.320312 66.792969 Z M 11.960938 15.765625 L 8.347656 9.289062 C 7.601562 7.945312 6.984375 6.390625 5.566406 5.695312 C 4.175781 5.011719 2.378906 5.003906 0 4.804688 L 0 3.09375 L 27.832031 3.09375 L 27.832031 4.804688 C 24.027344 4.765625 22.367188 4.609375 21.292969 5.511719 C 20.226562 6.40625 21.449219 9.179688 22.167969 10.429688 L 26.074219 17.242188 L 36.0625 35.488281 L 47.265625 4.863281 C 47.640625 3.839844 48.074219 2.910156 47.488281 2.417969 C 46.410156 1.515625 44.753906 1.671875 40.945312 1.710938 L 40.945312 0 L 74.234375 0 L 74.234375 1.710938 C 68.992188 2.152344 69.347656 1.480469 67.585938 5.882812 C 64.210938 14.332031 56.0625 37.628906 48.773438 58.707031 L 59.988281 79.1875 L 84.976562 12.859375 C 85.660156 11.480469 87.5 7.089844 86.402344 6.070312 C 84.816406 4.601562 82.304688 4.871094 78.921875 4.699219 L 78.921875 3.199219 L 100.179688 3.199219 L 100.179688 4.699219 C 93.085938 5.078125 91.585938 6.078125 90.882812 7.8125 L 87.078125 17.179688 L 61.421875 84.230469 L 48.882812 84.230469 L 43.449219 74.152344 C 39.476562 85.699219 36.375 94.765625 35.4375 97.425781 L 64.949219 97.425781 C 68.617188 97.425781 71.179688 97.15625 72.65625 96.609375 C 74.128906 96.058594 75.488281 94.484375 76.707031 93.09375 C 77.921875 91.707031 79.140625 89.507812 80.363281 86.511719 L 81.515625 86.765625 L 77.414062 99.894531 L 12.5 99.894531 L 30.621094 50.363281 Z M 41.183594 69.796875 L 32.84375 54.378906 L 17.273438 97.441406 L 31.390625 97.441406 Z M 47.542969 62.023438 L 44.648438 70.8125 L 50.589844 81.933594 L 58.5 81.972656 Z M 47.542969 62.023438 "/>
</g>
</svg>
