<svg xmlns="http://www.w3.org/2000/svg" xml:space="preserve" width="737.964" height="186.575" style="shape-rendering:geometricPrecision;text-rendering:geometricPrecision;image-rendering:optimizeQuality;fill-rule:evenodd;clip-rule:evenodd" viewBox="0 0 10320.57 2609.29"><defs><style>.fil0{fill:#fefefe;fill-rule:nonzero}</style></defs><g id="Слой_x0020_1"><path class="fil0" d="M3272.7 169.52c-3.86 15.63 1.38 26.39 10.21 32.41 5.21 3.56 11.63 5.79 18.33 6.69 6.83.93 13.86.44 20.13-1.45 9.86-2.97 17.56-9.77 17.84-20.25.4-14.59-6.05-24.87-15.09-30.74-4.81-3.13-10.42-5.12-16.2-5.96-5.78-.84-11.61-.5-16.86 1.04h-.06c-8.71 2.55-15.94 8.61-18.32 18.26zm602.43 1093.37c1.46-2.04 3.4-3.76 5.79-4.98 39.36-20.08 71.62-44.89 97.39-76.79 25.94-32.12 45.61-71.67 59.64-121.08 2.39-8.54 11.27-13.53 19.82-11.14 8.55 2.4 13.53 11.28 11.15 19.83-15.27 53.72-36.89 97.03-65.56 132.53-14.19 17.56-30.04 33.16-47.64 47.1 20.1-5.26 40.94-11.89 62.56-20.01l18.65-7.12c16.56-6.34 31.55-12.08 45.33-16.43 18.28-5.77 34.57-9.47 49.39-9.85-2.54-1.9-4.74-3.85-6.56-5.86-6.07-6.66-8.91-14.08-8.52-22.15.37-7.86 3.77-14.92 10.18-21.09 5.95-5.71 15.22-10.92 27.77-15.4 1.82-.8 3.8-1.35 5.87-1.59 35.34-4.11 73.92-7.28 111.22-3.44 39.05 4.02 76.24 15.71 106.32 41.73l526.89 470.77c.91.73 1.77 1.57 2.56 2.48 107.31 123.54 198.29 274.81 288.78 425.26 35.72 59.36 71.35 118.61 107.98 176.07-7.6-57.6-46.64-126.03-85.54-194.21-29.26-51.28-58.45-102.44-75.69-151.36-4.02-8.98-.96-19.78 7.59-25.21 9.39-5.95 21.82-3.18 27.78 6.22l25.96 41.1c94.63 149.8 287.73 455.48 309.17 448.52 1.69-.55-9.65-20.55-26.56-72.39-101.54-227.32-227.15-393.55-354.64-562.24-54.89-72.64-110.13-145.73-164.32-224.83-40.3-58.84-74.37-120.4-108.45-181.98-55.14-99.64-110.33-199.37-194.28-288.81-85.12-14.93-170.97-28.23-256.62-39.43-79.25-10.35-158.54-18.93-237.14-25.32.77 18.03-.13 36.1-2.74 54.18-3.75 25.96-10.99 51.82-21.78 77.55-3.45 8.2-12.89 12.06-21.09 8.62-8.21-3.44-12.07-12.88-8.63-21.09 9.79-23.32 16.32-46.54 19.65-69.61a258.78 258.78 0 0 0 2.22-52.16l-9.83-.71-.23-.03c-51.01-4.24-97.22-11.24-139.12-20.48-22.24 102.45-58.28 177.74-105.97 230.06-35.08 38.49-76.24 64.46-122.67 79.58a354.58 354.58 0 0 0 21.71 3.64c8.39-4.06 18.16-2.84 25.24 2.58 21.12 1.45 43.43 1.22 66.96-1zm211.01-16.98c13.64 10.65 24.82 22.96 33.04 37.2 13.13 22.7 18.45 49.72 13.98 82.02-1.21 8.79-9.33 14.93-18.12 13.72-8.79-1.22-14.93-9.33-13.72-18.13 3.43-24.72-.39-44.95-9.95-61.49-9.1-15.75-23.67-28.73-42.41-39.51l-16.5 6.25c-86.29 32.43-161.64 42.59-227.06 38.12l-9.04 5.28c-20.69 12.07-41.1 23.99-61.52 35.31 26.75 9.09 55.45 33.74 87.91 80.86 7.56 10.95 4.82 25.96-6.14 33.52-10.95 7.56-25.96 4.81-33.52-6.14-46.43-67.39-76.82-70.28-105.17-50.75-15.47 10.66-31.89 27.21-49.34 44.8-44.15 44.5 63.43 22.04-12.14 26.22-13.3.73-20.38-1.96-21.11-15.24-.73-13.3-84.9-15.03-71.61-15.75 57.05-3.15 32.63 9.13 70.68-29.22l8.38-8.43c-41.1 13.15-83.18 21.2-126.21 24.99-43.39 3.81-87.89 3.35-133.45-.54-13.3-1.09-23.19-12.77-22.09-26.05 1.09-13.29 12.77-23.18 26.06-22.09 42.9 3.66 84.71 4.1 125.33.54 40.42-3.56 79.54-11.05 117.24-23.24 47.3-15.29 93.47-39.47 140.57-66.33a389.188 389.188 0 0 1-47.06-15.68c-88.36-35.86-149.48-98.45-188.99-150.89-52.99-66.51-90.15-141.28-116.53-216.77-26.26-75.14-41.79-150.8-51.64-219.56-3.37-23.55-6.82-49.96-10.08-74.87-11.45-87.54-20.25-154.84-38.14-175.69-1.67-1.7-3.05-3.72-4.05-6.02-12.71-29.12-40.39-54.21-67.8-79.04-40.02-36.25-79.54-72.07-84.76-125.2-20.19-18.23-47-32.97-79.86-40.75-32.03-7.58-69.7-8.56-112.51.15-10.86 2.22-21.47-4.79-23.69-15.66-.5-2.44-.53-4.86-.15-7.18.45-7.13 4.7-13.79 11.64-16.99 39.5-18.19 78.67-28.39 117.52-31.01 33.18-2.24 66.06 1.08 98.63 9.69 28.25-54.54 68.43-87.09 112.11-105.53C3291.82 1 3342.19-2.13 3385.7 1.14c50.55 3.78 119.48 27.32 174.66 77.84 41.56 38.06 75.42 91.25 88.02 162.53.21 1.22.31 2.44.3 3.63 2.99 40.84 134.76 88.36 237.44 125.37 36.61 13.2 69.79 25.17 93.63 35.79 21.38 5.52 43.09 10.75 64.73 15.96 110.25 26.57 218.78 52.72 278.54 113.76 36.29 36.08 73.79 45.66 116.9 56.68 59.44 15.2 128.55 32.87 220.24 116.21l.93.89c194.07 175.23 389.01 241.12 543.4 293.32 108.12 36.54 197.02 66.59 255.66 123.03 7.99 7.69 8.24 20.4.55 28.39-4.24 4.41-10 6.45-15.65 6.13-184.8-11.34-377.47-48.18-574.55-85.88-48.58-9.29-97.41-18.63-141.59-26.79 68.27 82.05 116.97 170.05 165.63 257.98 33.28 60.15 66.55 120.26 106.56 178.67 53.4 77.96 108.48 150.84 163.21 223.26 129.01 170.71 256.12 338.9 359.73 571.29.29.66.54 1.32.76 1.98 25.88 79.5 23.16 116.65 1.03 123.84-29.56 9.6-110.32-94.46-192.55-214.6 13.31 41.52 17.41 81.27 4.9 117.76-3.56 10.52-14.98 16.15-25.49 12.59-4.56-1.55-8.2-4.57-10.58-8.35-47.87-72.3-94.08-149.13-140.42-226.15-89.36-148.57-179.21-297.92-283.96-418.75l-526.08-470.01c-22.95-19.82-52.55-28.87-84.15-32.12-32.67-3.37-67.87-.54-100.52 3.21l-.08.02c1.25.53 2.42 1.17 3.5 1.91 11.71 7.96 25.82 13.85 42.16 18.08 17.17 4.44 36.87 7.07 58.85 8.34 11.08.61 19.57 10.1 18.97 21.16-.61 11.09-10.09 19.58-21.17 18.97-24.45-1.41-46.73-4.42-66.72-9.6-2.7-.7-5.35-1.43-7.97-2.21 16.81 20.68 32.13 53.36 47.56 102.27 3.35 10.6-2.54 21.91-13.14 25.26-10.6 3.34-21.91-2.55-25.26-13.15-32.31-102.41-60.31-111.9-109.3-96.44-2.69.85-5.44 1.76-8.25 2.71zm-387.73-7.04c63.39-8.34 117.97-34.47 161.69-82.44 44.01-48.3 77.48-118.91 98.45-215.91-22.37-5.83-43.42-12.32-63.21-19.39-9.76 51.71-27.14 97.33-52.74 136.35-29.83 45.46-70.65 81.86-123.38 108.41-7.93 4-17.6.81-21.6-7.11-4-7.93-.81-17.6 7.11-21.6 47.5-23.91 84.2-56.59 110.93-97.33 24.22-36.93 40.4-80.59 49.15-130.46-36.87-15.25-68.95-32.57-96.92-51.23-20.7 50.24-48.39 93.13-90.13 126.59-43.88 35.17-102.8 59.4-184.86 70.09 10.24 15.64 21.24 30.92 33.08 45.75l.31.39c4.21 5.6 8.7 11.32 13.45 17.11 40.18 2.02 75.36-4.83 105.39-20.79 33.57-17.85 61.16-47.35 82.56-88.86 4.07-7.89 13.77-10.99 21.66-6.93 7.9 4.07 10.99 13.77 6.93 21.66-24.53 47.57-56.62 81.63-96.04 102.59-27.28 14.51-57.88 22.61-91.71 24.43 33.29 33.87 76.09 66.86 129.76 88.65l.13.03zm-617.34-1081.3c29.68 11.37 54.43 27.88 73.8 47.1 3.94 3.92 5.91 9.07 5.91 14.23 1.33 40.53 36.48 72.38 72.08 104.64 29.9 27.09 60.08 54.44 76.5 90.03 24.92 31.11 34.29 102.7 46.39 195.27 2.92 22.28 6.01 45.92 10.09 74.4 1.71 11.9 3.58 24.02 5.66 36.29 55.74 16.78 98.5 14.17 130.48-8.36 33.84-23.82 57.43-70.36 73.22-140.15-5.57-23.2-6.26-51.05.37-78.64 6.22-25.87 18.8-51.58 39.7-73.21 20.73-21.46 49.46-38.83 88.01-48.19 15.8-3.84 33.3-6.32 52.63-7.17-77.34-32.66-143.54-70.96-147.24-115.85-10.95-61.38-39.9-106.97-75.35-139.43-47.73-43.71-107.12-64.05-150.59-67.3-38.37-2.87-82.35-.3-122.25 16.55-39.07 16.5-74.87 47.15-98.52 100.73-4.11 9.3-14.66 14.19-24.55 11.02-18.67-6.01-37.44-10.02-56.33-11.97zm296.85 597.02c4.33 21.92 9.36 44.21 15.21 66.65 44.95 18.19 84.16 20.05 118.47 7.94 37.3-13.16 69.78-43.02 98.33-86.51 4.86-7.43 14.84-9.51 22.28-4.65 7.44 4.86 9.52 14.84 4.66 22.28-32.39 49.35-70.18 83.57-114.56 99.22-35.66 12.58-74.98 13.06-118.47-.33 3.65 12.02 7.56 24.06 11.75 36.06 15.39 44 34.61 87.74 58.77 129.47 83.34-8.86 141.4-31.47 183.27-65.02 38.84-31.13 64.26-72.22 83.37-120.84-14.24-10.98-27.25-22.3-39.12-33.83-21.07 46.47-46.12 81.69-77.1 106.21-36.33 28.76-80.11 42.48-134.37 42.04-8.86-.07-15.99-7.32-15.93-16.17.07-8.86 7.32-15.99 16.17-15.93 46.65.39 83.87-11.08 114.24-35.11 29.3-23.2 52.89-58.43 72.99-106.27-45.24-51.56-70.45-105.12-85.82-149.92-17.21 50.08-40.62 85.85-71.55 107.62-37.3 26.28-84.13 31.79-142.57 17.1zm600.23-304.46c-3.52-1.9-7.54-3.87-12.01-5.92-31.02-8.04-61.29-16.7-89.58-26.7-70.38-16.76-123.88-17.2-163.84-7.5-30.44 7.39-52.74 20.71-68.5 37.02-15.59 16.15-24.98 35.34-29.62 54.64-5.12 21.26-4.58 42.62-.29 60.29 12.04 49.56 35.47 132.37 107.93 206.66 73.15 74.99 196.74 142.01 410.05 159.77 92.2 6.62 186.46 16.45 281.46 28.87 100.57 13.15 201.69 29.24 301.83 47.49 59.43 10.83 111.13 20.71 162.49 30.54 170.79 32.66 338.26 64.69 499.02 79.76-49.43-27.95-112.86-49.38-185.33-73.87-157.84-53.35-357.13-120.72-557.41-301.5l-1.23-1.05c-84.2-76.52-148.12-92.87-203.09-106.92-48.66-12.44-91-23.28-135.11-67.03l-.47-.47c-51.66-52.95-154.63-77.76-259.23-102.96-13.59-3.27-27.22-6.56-40.77-9.91-5.17 1.84-11.07 1.58-16.29-1.23zm-712.22-223.3c-18.63-12.73-29.96-34.3-22.49-64.51 5.26-21.3 20.67-34.54 39.15-39.95 9.45-2.79 19.68-3.44 29.61-2.01 9.93 1.42 19.74 4.96 28.35 10.56 17.22 11.18 29.49 30.24 28.77 56.82-.7 25.75-17.66 41.83-39.32 48.35-10.27 3.09-21.7 3.9-32.77 2.4-11.2-1.51-22.14-5.4-31.31-11.66zm5170.91 1442.68 15.6 254.37h-15.6c-20.98-76.12-50.81-131.13-89.66-164.49-38.84-33.53-85.32-50.3-139.77-50.3-45.43 0-86.7 12.62-123.46 37.87-36.76 25.26-65.72 65.39-86.88 120.78-20.98 55.19-31.56 123.97-31.56 206.11 0 67.83 9.89 126.61 29.83 176.35 19.94 49.74 49.94 87.8 89.83 114.37 40.06 26.57 85.66 39.76 136.81 39.76 44.58 0 83.94-10.38 117.92-31.09 34.17-20.74 71.62-61.99 112.37-123.8l15.78 11.31c-34.51 66.51-74.75 115.12-120.7 146.02-45.95 30.7-100.57 46.16-163.69 46.16-113.93 0-202.2-45.98-264.62-138.11-46.65-68.58-70.06-149.22-70.06-241.92 0-74.79 15.43-143.57 46.13-206.12 30.69-62.74 73-111.15 126.76-145.64 53.94-34.47 112.72-51.63 176.53-51.63 49.6 0 98.49 13.19 146.87 39.76 14.04 8.09 24.27 12.25 30.35 12.25 9.02 0 16.99-3.58 23.76-10.56 8.84-9.98 15.09-23.73 18.72-41.45h18.74zm261.15-19.21v671.49c0 31.47 2.08 52.38 6.24 62.56 4.33 10.17 10.75 18.09 19.59 23.36 8.67 5.28 25.15 7.92 49.08 7.92v20.35h-227.85v-20.35c21.32 0 35.89-2.45 43.69-7.16 7.81-4.71 13.88-12.63 18.38-23.56 4.33-10.93 6.59-32.03 6.59-63.12V1861.7c0-56.53-1.22-91.19-3.47-104.01-2.43-12.99-6.24-21.85-11.44-26.57-5.2-4.7-11.96-7.16-20.11-7.16-8.67 0-19.77 3.02-33.3 8.86l-8.67-20.34 138.38-62.18h22.89zm247.28 0c14.04 0 26.19 5.47 36.24 16.2 9.89 10.93 14.92 24.12 14.92 39.38 0 15.46-5.03 28.82-14.92 39.75-10.05 11.13-22.19 16.58-36.24 16.58-14.22 0-26.53-5.45-36.59-16.58-10.23-10.93-15.26-24.29-15.26-39.75 0-15.27 5.03-28.46 14.91-39.38 10.06-10.74 22.37-16.2 36.94-16.2zm41.79 264.54v406.96c0 31.47 2.08 52.38 6.42 62.75 4.15 10.55 10.41 18.27 18.73 23.37 8.32 5.08 23.58 7.72 45.6 7.72v20.35h-225.77v-20.35c22.54 0 37.8-2.45 45.44-7.16 7.81-4.71 13.88-12.63 18.56-23.56 4.5-10.93 6.76-32.03 6.76-63.12v-195.57c0-54.44-1.56-89.68-4.51-105.88-2.43-11.69-6.07-19.78-11.27-24.31-5.04-4.71-11.96-6.96-20.64-6.96-9.54 0-20.98 2.82-34.51 8.28l-7.12-20.34 139.95-62.17h22.36zm264.1 106.07c54.45-70.65 106.3-106.07 155.54-106.07 25.32 0 47.17 6.96 65.38 20.72 18.38 13.75 32.77 36.55 43.69 68.2 7.46 22.23 11.1 56.15 11.1 101.75v216.29c0 31.84 2.43 53.32 7.11 64.81 3.65 9.04 9.71 16.21 17.86 21.3 8.32 5.08 23.58 7.72 45.78 7.72v20.35h-229.94v-20.35h9.71c21.51 0 36.59-3.58 45.26-10.74 8.49-7.16 14.56-17.72 17.86-31.48 1.38-5.46 2.08-22.8 2.08-51.63v-208.19c0-46.16-5.54-79.88-16.47-100.8s-29.31-31.27-55.32-31.27c-40.06 0-79.94 23.92-119.65 71.97v268.29c0 34.11 1.91 55.02 5.54 63.12 4.86 10.56 11.45 18.28 19.77 23.36 8.33 4.9 25.14 7.35 50.64 7.35v20.35h-230.98v-20.35h10.23c23.75 0 39.71-6.42 48.03-19.41s12.48-37.86 12.48-74.42v-187.65c0-60.67-1.21-97.6-3.81-110.79-2.6-13.38-6.43-22.43-11.62-27.13-5.2-4.71-12.31-7.16-20.98-7.16-9.54 0-20.82 2.82-33.99 8.28l-7.63-20.34 140.46-62.17h21.85v106.07zm503.4-370.61c14.04 0 26.19 5.47 36.24 16.2 9.89 10.93 14.92 24.12 14.92 39.38 0 15.46-5.03 28.82-14.92 39.75-10.05 11.13-22.19 16.58-36.24 16.58-14.22 0-26.53-5.45-36.59-16.58-10.23-10.93-15.25-24.29-15.25-39.75 0-15.27 5.02-28.46 14.91-39.38 10.06-10.74 22.37-16.2 36.94-16.2zm41.79 264.54v406.96c0 31.47 2.08 52.38 6.42 62.75 4.17 10.55 10.41 18.27 18.73 23.37 8.33 5.08 23.58 7.72 45.61 7.72v20.35h-225.78v-20.35c22.54 0 37.81-2.45 45.44-7.16 7.81-4.71 13.88-12.63 18.56-23.56 4.5-10.93 6.76-32.03 6.76-63.12v-195.57c0-54.44-1.56-89.68-4.51-105.88-2.43-11.69-6.07-19.78-11.27-24.31-5.03-4.71-11.96-6.96-20.64-6.96-9.54 0-20.98 2.82-34.51 8.28l-7.11-20.34 139.95-62.17h22.36zm524.22 328.77c-12.5 66.88-37.11 117.94-73.7 153.56-36.59 35.6-76.99 53.5-121.39 53.5-52.89 0-99.01-24.11-138.21-72.35-39.36-48.04-58.96-113.24-58.96-195.38 0-79.32 21.68-143.94 65.2-193.69 43.52-49.55 95.72-74.42 156.58-74.42 45.78 0 83.24 13.19 112.72 39.56 29.48 26.19 44.22 53.51 44.22 81.96 0 13.94-4.16 25.24-12.48 33.91-8.32 8.67-19.76 13.01-34.68 13.01-19.94 0-34.86-6.98-44.74-21.11-6.07-7.72-10.05-22.61-11.96-44.47-1.92-21.85-8.68-38.62-20.47-50.11-11.96-11.13-28.26-16.59-49.25-16.59-33.99 0-61.22 13.57-81.85 40.89-27.4 36.19-41.1 83.85-41.1 143.39 0 60.48 13.7 113.8 40.92 160.14 27.4 46.17 64.16 69.34 110.63 69.34 33.3 0 63.13-12.06 89.49-36.37 18.72-16.77 36.76-47.67 54.45-92.51l14.57 7.72zM6793.95 986.75l188.42 372.13 430.7-1285.5h-306.18c-104.31 304.46-208.63 608.92-312.94 913.37zm91.44 653.49 71.57-203.78-598.01-1179.04c-24.44-50.28-21.43-81.79 0-100.68H6122c8.51 6.87 14.31 16.01 22.82 31.94 246.85 483.86 493.72 967.72 740.57 1451.56zM6204.97 418l-80.98-155.08c-16.79-32.18-30.58-69.45-62.35-86.09-31.22-16.36-71.48-16.55-124.79-21.33v-41.02h623.85v41.02c-85.31-.97-122.48-4.71-146.61 16.92-23.88 21.43 3.54 87.84 19.59 117.79l87.54 163.23 223.89 437 251.1-733.5c8.41-24.57 18.15-46.77 4.99-58.58-24.12-21.64-61.29-17.88-146.62-16.92V40.42h746.14v41.02c-117.54 10.56-109.6-5.56-149.02 99.91-75.64 202.37-258.34 760.37-421.67 1265.24l251.32 490.54 560.09-1588.72c15.32-33.02 56.6-138.17 31.95-162.59-35.54-35.2-91.83-28.74-167.64-32.81v-35.99h476.46v35.99c-159.03 9.09-192.58 32.99-208.36 74.52l-85.25 224.35-575.05 1605.99h-281.07l-121.79-241.32c-89 276.48-158.56 493.68-179.55 557.38h661.4c82.21 0 139.71-6.43 172.76-19.55 33.05-13.14 63.5-50.88 90.82-84.23 27.22-33.2 54.54-85.82 81.95-157.64l25.79 6.14-91.89 314.4H6217l406.13-1186.34-418.18-828.69zm654.92 1294.17-186.9-369.32-348.98 1031.46h316.44l219.44-662.14zm142.53-186.22-64.84 210.49 133.16 266.45 177.3.89-245.62-477.84z"/><path class="fil0" d="M2421.82 1431.06c-120.72 104.26-226.62 207.92-321.58 318.16-108.58 126.03-202.87 260.55-288.59 414.18a22.49 22.49 0 0 0-2.85 10.4c-30.17 25.34-60.64 50.69-91.53 76.04-5.58 4.63-8.87 11.85-8.11 19.6 1.21 12.35 12.19 21.39 24.54 20.18 296.29-27.98 553.2-112.06 766.54-258.19 213.59-146.3 382.96-354.38 503.84-630.13.22-.49.42-.99.6-1.49 174.96 3.85 334.71 21.43 458.8 55.15 94.23 25.59 154.51 37.54 253.42 55.63 39.71 7.25 75.56 13.81 108.71 21.61l-.02.06c8.13 1.91 29.9 8.45 54.99 16.23 20.07 6.22 42 13.15 60.88 19.17-44.44-5.78-88.09-7.62-131.01-5.76-84.67 3.65-166.49 21.64-245.75 51.95-4.42-4.03-9.61-7.38-15.67-9.35-15.61-5.07-38.12-.97-51.72 3.34-31.7 10.04-58 44.71-44.87 80.24 8.47 22.93 58.21 73.18 114.9 36.97 34.64-22.12 33.13-46.06 21.71-72.46 72.08-26.65 146.43-42.48 223.32-45.79 89.52-3.85 182.5 9.27 279.32 42.01.48.16.95.31 1.43.43 138.55 94.96 262.2 197.08 372.62 305.13 163.99 160.5 298.7 334.02 409.7 516.59 6.46 10.57 20.28 13.92 30.86 7.45 10.57-6.46 13.92-20.29 7.45-30.86-112.97-185.83-249.94-362.29-416.53-525.33-166.53-162.99-362.78-312.69-594.36-445.07-134.51-76.89-285.49-140-443.12-205.87-207.39-222.89-418.94-307.44-631.54-288.95-130.66 11.36-261.05 61.86-390.6 143.19-2.24-.27-4.57-.21-6.9.23l-6.64 1.26a22.44 22.44 0 0 0-14.91-.38l-13.36 4.29-14.63 4.69-14.36 2.97c-70.72 14.65-140.91 29.19-203.79 28.11-60.6-1.04-117.47-11.23-170.3-28.2-39.1-12.55-75.94-28.8-110.41-47.76 3.46-13.14 5.17-28.65-1.92-41.44-8.39-15.14-30-27.12-44.58-32.77-33.98-13.19-84.07-1.4-103.04 38.31-12.24 25.63-13.85 103.29 62.11 111.13 38.68 4 58.11-10.42 70.88-33.08 35.5 19.18 73.27 35.63 113.2 48.45 44.91 14.42 92.64 24.28 143.06 28.31l-9.21 8.39c-167.92 47.51-340.93 85.64-507.65 91.59-279.73 10-535.04 57.54-793.67 202.49-257.54 144.34-517.37 384.93-806.66 781.03a22.45 22.45 0 0 0-4.83 14.05c.08 12.41 10.2 22.43 22.62 22.35 273.48-1.4 506.77-36.73 703.83-103.75 157.66-53.62 292.04-127.51 405.18-220.52-83.27 170.22-139.72 366.29-172.48 578.07-1.92 12.25 6.45 23.74 18.7 25.67 3.94.61 7.79.17 11.27-1.13 301.63-110.59 544.01-265.04 714.01-467.29 162.69-193.55 258.82-430.36 276.88-713.82.29-4.7-.87-9.15-3.12-12.91 52.41-54.48 105.14-106.47 158.4-155.53 66.82-19.08 132.74-39.55 197.09-60-93.43 70.53-186.32 156-278.45 253.31-8.55 9.01-8.16 23.24.85 31.79 5.76 5.46 13.65 7.28 20.83 5.53 108.96-23.64 226.24-43.16 346.23-57.91zm534.07-31.96c-116.95 260.04-278.54 456.68-480.94 595.31-188.75 129.29-413.47 208.52-670.98 242.11 98.63-82.24 194.96-165.59 291.3-248.93 229.14-198.25 458.28-396.5 726.65-586.38.31-.22.61-.44.9-.68l15.97-.42c39.52-.95 78.63-1.3 117.1-1zm-214.39 4.56c-247.62 179.61-461.63 364.77-675.62 549.93-53.14 45.96-106.27 91.94-160.03 137.91 69.36-113.02 144.55-215.61 228.32-312.85 106.7-123.87 227.35-239.27 367.57-356.65 79.81-8.32 160.27-14.5 239.76-18.34zM95.99 2283.33c282.07-173.11 573.44-348.28 867.06-510.8 304.36-168.47 611.78-323.72 914.9-449.62 1.54-.64 2.97-1.44 4.28-2.36 53.9-10.65 107.72-23.25 161.17-37.12-33.09 32.05-66 65.16-98.76 99.22-3.23-1-6.75-1.3-10.32-.7-275.67 45.45-487.95 179.06-645.29 373.58-34.61 42.78-66.52 88.51-95.85 136.87-3.85.95-7.49 2.92-10.49 5.91-123.83 124.21-279.44 219.93-470.77 285.01-174.47 59.34-378.81 93.21-615.93 100.01zm1611.55-935.99c-254.6 113.16-511.5 244.96-766.35 386.03-279.13 154.5-555.31 319.81-823.23 483.84 254.68-330.29 486.42-537.63 715.53-666.03 251.1-140.73 500.08-186.94 773.35-196.7 33.4-1.19 67-3.63 100.7-7.14zm187.46 87.74c-215.92 231.59-426.71 502.81-646.96 786.2-76.04 97.84-153.22 197.15-232.3 296.97 53.06-288.09 152.87-542.37 308.19-734.39 141.56-175.01 329.68-298.47 571.07-348.78zm-832 1095.8c74.74-94.54 148.11-188.95 220.47-282.05 221.14-284.55 432.74-556.78 648.92-788.02-23.1 257.09-114.13 473.07-263.54 650.81-147.73 175.75-352.79 314.59-605.86 419.26zm1178.29-1119.22c249.18-112.56 472.02-163.63 675.42-159.34 188.86 3.97 361.42 55.76 523.2 150.35-162.84-38.54-376.03-52.89-602.16-47.42-197.11 4.77-404.24 24.54-596.46 56.41zm1258.93-24.86c-179.1-112.96-370.91-174.92-582.66-179.37-222.92-4.68-467.38 54.47-741.78 185.04 217.78-209.94 437.9-346.34 656.41-365.36 223.39-19.43 447.23 84.67 668.03 359.69z"/></g></svg>