<svg xmlns="http://www.w3.org/2000/svg" viewBox="0 0 2370.71 1305.58" data-guides="{&quot;vertical&quot;:[],&quot;horizontal&quot;:[]}"><path fill="#879822" clip-rule="evenodd" text-rendering="geometricprecision" class="fil0" d="m1351.851 881.255 8.43 137.449h-8.43c-11.34-41.13-27.46-70.86-48.45-88.88-20.99-18.12-46.099-27.18-75.519-27.18-24.55 0-46.85 6.82-66.71 20.46-19.86 13.65-35.509 35.33-46.949 65.27-11.34 29.82-17.05 66.99-17.05 111.37 0 36.649 5.34 68.419 16.12 95.289 10.78 26.88 26.99 47.44 48.54 61.8 21.65 14.359 46.29 21.489 73.92 21.489 24.09 0 45.359-5.61 63.719-16.8 18.46-11.2 38.7-33.5 60.72-66.89l8.53 6.11c-18.65 35.94-40.39 62.2-65.22 78.9-24.83 16.59-54.34 24.94-88.45 24.94-61.56 0-109.259-24.84-142.989-74.62-25.21-37.06-37.86-80.63-37.86-130.719 0-40.41 8.34-77.58 24.93-111.38 16.58-33.899 39.45-60.059 68.49-78.699 29.14-18.62 60.91-27.9 95.39-27.9 26.8 0 53.219 7.13 79.359 21.49 7.59 4.37 13.12 6.62 16.4 6.62 4.87 0 9.18-1.93 12.84-5.71 4.78-5.39 8.15-12.82 10.12-22.4 3.373 0 6.746 0 10.12-.01Zm141.11-10.38v362.837c0 17.01 1.13 28.3 3.37 33.8 2.34 5.5 5.81 9.78 10.59 12.62 4.69 2.85 13.59 4.28 26.52 4.28v11h-123.12v-11c11.52 0 19.39-1.33 23.61-3.87 4.22-2.54 7.5-6.82 9.93-12.73 2.34-5.91 3.56-17.31 3.56-34.11V985.094c0-30.54-.66-49.28-1.88-56.2-1.31-7.02-3.37-11.81-6.18-14.35-2.81-2.54-6.46-3.87-10.87-3.87-4.69 0-10.68 1.63-17.99 4.79l-4.68-10.99 74.77-33.6h12.37Zm133.619 0c7.59 0 14.15 2.95 19.58 8.75 5.34 5.9 8.06 13.03 8.06 21.28 0 8.35-2.72 15.57-8.06 21.48-5.43 6.01-11.99 8.96-19.58 8.96-7.69 0-14.33-2.95-19.77-8.96-5.53-5.91-8.25-13.13-8.25-21.48 0-8.25 2.72-15.38 8.05-21.28 5.44-5.8 12.09-8.75 19.97-8.75Zm22.58 142.939v219.898c0 17.01 1.13 28.3 3.47 33.91 2.24 5.7 5.62 9.87 10.12 12.63 4.5 2.74 12.74 4.17 24.64 4.17v11h-122v-11c12.18 0 20.43-1.33 24.55-3.87 4.22-2.54 7.5-6.82 10.03-12.73 2.43-5.91 3.65-17.31 3.65-34.11v-105.67c0-29.419-.85-48.459-2.44-57.209-1.31-6.31-3.28-10.69-6.09-13.14-2.72-2.54-6.46-3.76-11.15-3.76-5.15 0-11.34 1.52-18.64 4.48l-3.85-10.99 75.62-33.59h12.08l.01-.02Zm142.709 57.32c29.42-38.18 57.44-57.32 84.05-57.32 13.679 0 25.489 3.76 35.329 11.2 9.93 7.43 17.71 19.75 23.61 36.85 4.03 12.01 6 30.34 6 54.979v116.87c0 17.21 1.31 28.809 3.84 35.019 1.97 4.89 5.25 8.76 9.65 11.51 4.5 2.74 12.74 4.17 24.74 4.17v11h-124.25v-11h5.25c11.62 0 19.77-1.94 24.46-5.8 4.59-3.87 7.87-9.58 9.65-17.01.75-2.95 1.13-12.32 1.13-27.9v-112.5c0-24.939-3-43.159-8.9-54.469-5.91-11.3-15.84-16.89-29.89-16.89-21.64 0-43.19 12.93-64.65 38.89v144.97c0 18.43 1.03 29.729 3 34.109 2.63 5.7 6.19 9.88 10.68 12.62 4.5 2.65 13.59 3.97 27.36 3.97v11H1708.12v-11h5.53c12.83 0 21.46-3.47 25.95-10.49 4.5-7.02 6.74-20.46 6.74-40.21v-101.4c0-32.789-.65-52.739-2.06-59.859-1.41-7.23-3.47-12.12-6.28-14.66-2.81-2.54-6.65-3.87-11.34-3.87-5.16 0-11.25 1.52-18.37 4.48l-4.12-10.99 75.9-33.59h11.81c0 19.107 0 38.214-.01 57.32Zm272.008-200.26c7.59 0 14.15 2.95 19.58 8.75 5.34 5.9 8.06 13.03 8.06 21.28 0 8.35-2.72 15.57-8.06 21.48-5.43 6.01-11.99 8.96-19.58 8.96-7.69 0-14.33-2.95-19.77-8.96-5.53-5.91-8.24-13.13-8.24-21.48 0-8.25 2.71-15.38 8.05-21.28 5.44-5.8 12.09-8.75 19.96-8.75Zm22.58 142.94v219.898c0 17.01 1.13 28.3 3.47 33.91 2.25 5.7 5.62 9.87 10.12 12.63 4.5 2.74 12.74 4.17 24.64 4.17v11h-122v-11c12.18 0 20.43-1.33 24.55-3.87 4.22-2.54 7.5-6.82 10.03-12.73 2.43-5.91 3.65-17.31 3.65-34.11v-105.67c0-29.419-.84-48.459-2.44-57.209-1.31-6.31-3.28-10.69-6.09-13.14-2.72-2.54-6.46-3.76-11.15-3.76-5.15 0-11.34 1.52-18.64 4.48l-3.84-10.99 75.62-33.59h12.08v-.02Zm283.258 177.649c-6.75 36.14-20.05 63.73-39.82 82.979-19.77 19.24-41.6 28.91-65.59 28.91-28.58 0-53.5-13.03-74.679-39.09-21.27-25.96-31.86-61.19-31.86-105.57 0-42.859 11.71-77.779 35.23-104.659 23.52-26.78 51.72-40.21 84.61-40.21 24.74 0 44.98 7.13 60.91 21.38 15.929 14.15 23.889 28.92 23.889 44.29 0 7.53-2.25 13.64-6.75 18.32s-10.68 7.03-18.74 7.03c-10.78 0-18.84-3.77-24.17-11.4-3.28-4.17-5.43-12.22-6.46-24.03-1.04-11.81-4.69-20.87-11.06-27.08-6.46-6.01-15.27-8.97-26.61-8.97-18.36 0-33.08 7.33-44.23 22.09-14.81 19.55-22.209 45.31-22.209 77.48 0 32.68 7.4 61.49 22.11 86.53 14.8 24.95 34.67 37.47 59.78 37.47 17.99 0 34.11-6.52 48.35-19.65 10.12-9.06 19.859-25.76 29.419-49.98l7.87 4.17.01-.01ZM464.127 512.327l101.81 201.079L798.665 18.8H633.226c-56.37 164.509-112.73 329.028-169.089 493.537a.471.471 0 0 0-.01-.01Zm49.41 353.108 38.67-110.11L229.079 118.24c-13.2-27.17-11.58-44.19 0-54.4h-128.03c4.6 3.71 7.73 8.65 12.33 17.26 133.39 261.449 266.779 522.897 400.158 784.336ZM145.879 205.009l-43.76-83.8c-9.07-17.39-16.53-37.53-33.69-46.52C51.56 65.85 29.81 65.75 1 63.17V41h337.098v22.17c-46.09-.52-66.18-2.55-79.22 9.14-12.9 11.58 1.91 47.46 10.58 63.65l47.3 88.2 120.98 236.128L573.416 63.95c4.54-13.28 9.81-25.27 2.7-31.65-13.04-11.69-33.12-9.66-79.22-9.14V1h403.167v22.16c-63.51 5.71-59.22-3-80.52 53.98-40.869 109.349-139.588 410.857-227.848 683.655l135.8 265.059 302.638-858.455c8.28-17.84 30.58-74.66 17.26-87.85-19.2-19.02-49.62-15.53-90.58-17.73V42.37h257.448v19.45c-85.93 4.91-104.059 17.83-112.589 40.27l-46.07 121.23-310.728 867.784H593.006l-65.81-130.399c-48.089 149.399-85.679 266.758-97.019 301.178h357.378c44.42 0 75.49-3.47 93.35-10.56 17.86-7.1 34.31-27.49 49.08-45.51 14.71-17.94 29.469-46.37 44.279-85.18 4.647 1.108 9.293 2.214 13.94 3.32l-49.65 169.88H152.37l219.449-641.026c-75.32-149.26-150.64-298.518-225.939-447.797Zm353.878 699.295-100.99-199.558L210.2 1262.082h170.989l118.569-357.778Zm77.02-100.619-35.04 113.74 71.95 143.968 95.799.48c-44.24-86.066-88.48-172.132-132.71-258.188Z"/></svg>